HIERARCHY
ROOT Hips
{
	OFFSET 0.000000 0.000000 0.000000 
	CHANNELS 6 Xposition Yposition Zposition Zrotation Yrotation Xrotation
	JOINT LeftUpLeg
	{
		OFFSET 1.363060 -1.794630 0.839290 
		CHANNELS 3 Zrotation Yrotation Xrotation
		JOINT LeftLeg
		{
			OFFSET 2.448110 -6.726130 0.000000 
			CHANNELS 3 Zrotation Yrotation Xrotation
			JOINT LeftFoot
			{
				OFFSET 2.562200 -7.039590 0.000000 
				CHANNELS 3 Zrotation Yrotation Xrotation
				JOINT LeftToeBase
				{
					OFFSET 0.157640 -0.433110 2.322550 
					CHANNELS 3 Zrotation Yrotation Xrotation
					End Site
					{
						OFFSET 0.000000 0.000000 0.000000 
					}
				}
			}
		}
	}
	JOINT RightUpLeg
	{
		OFFSET -1.305520 -1.794630 0.839290 
		CHANNELS 3 Zrotation Yrotation Xrotation
		JOINT RightLeg
		{
			OFFSET -2.542530 -6.985550 0.000000 
			CHANNELS 3 Zrotation Yrotation Xrotation
			JOINT RightFoot
			{
				OFFSET -2.568260 -7.056230 0.000000 
				CHANNELS 3 Zrotation Yrotation Xrotation
				JOINT RightToeBase
				{
					OFFSET -0.164730 -0.452590 2.363150 
					CHANNELS 3 Zrotation Yrotation Xrotation
					End Site
					{
						OFFSET 0.000000 0.000000 0.000000 
					}
				}
			}
		}
	}
	JOINT Spine
	{
		OFFSET 0.028270 2.035590 -0.193380 
		CHANNELS 3 Zrotation Yrotation Xrotation
		JOINT Spine1
		{
			OFFSET 0.056720 2.048850 -0.042750 
			CHANNELS 3 Zrotation Yrotation Xrotation
			JOINT Neck1
			{
				OFFSET -0.054170 1.746240 0.172020 
				CHANNELS 3 Zrotation Yrotation Xrotation
				JOINT Head
				{
					OFFSET 0.104070 1.761360 -0.123970 
					CHANNELS 3 Zrotation Yrotation Xrotation
					End Site
					{
						OFFSET 0.000000 0.000000 0.000000 
					}
				}
			}
			JOINT LeftArm
			{
				OFFSET 3.362410 1.200890 -0.311210 
				CHANNELS 3 Zrotation Yrotation Xrotation
				JOINT LeftForeArm
				{
					OFFSET 4.983000 -0.000000 -0.000000 
					CHANNELS 3 Zrotation Yrotation Xrotation
					JOINT LeftHand
					{
						OFFSET 3.483560 -0.000000 -0.000000 
						CHANNELS 3 Zrotation Yrotation Xrotation
						JOINT LeftHandIndex1
						{
							OFFSET 0.715260 -0.000000 -0.000000 
							CHANNELS 3 Zrotation Yrotation Xrotation
							End Site
							{
								OFFSET 0.000000 0.000000 0.000000 
							}
						}
					}
				}
			}
			JOINT RightArm
			{
				OFFSET -3.136600 1.374050 -0.404650 
				CHANNELS 3 Zrotation Yrotation Xrotation
				JOINT RightForeArm
				{
					OFFSET -5.241900 -0.000000 -0.000000 
					CHANNELS 3 Zrotation Yrotation Xrotation
					JOINT RightHand
					{
						OFFSET -3.444170 -0.000000 -0.000000 
						CHANNELS 3 Zrotation Yrotation Xrotation
						JOINT RightHandIndex1
						{
							OFFSET -0.622530 -0.000000 -0.000000 
							CHANNELS 3 Zrotation Yrotation Xrotation
							End Site
							{
								OFFSET 0.000000 0.000000 0.000000 
							}
						}
					}
				}
			}
		}
	}
}
MOTION
Frames: 15
Frame Time: 0.041667
3.265032 17.661081 0.273686 -161.963765 88.370368 -162.558549 -14.283264 -2.634171 -3.712619 0.240907 3.349583 12.651658 0.571916 -4.937964 -1.243277 0.041500 -1.314100 -3.613400 22.203302 7.088779 1.241468 0.452380 -3.010885 15.174142 -0.038665 -4.953066 -15.916479 -0.081800 1.844600 -5.076300 -4.312702 -0.104957 1.380707 -2.816233 -0.307256 -5.788806 7.868203 -8.650906 8.343154 3.725500 -3.983500 4.509800 -9.916204 -1.947390 -32.302130 75.008991 -57.728839 -62.516899 3.622832 -1.602125 -6.428836 -7.125000 0.000000 0.000000 31.949141 -29.263714 80.767718 -88.330085 62.929903 -56.890470 -1.024806 2.813803 -59.046269 7.125000 0.000000 0.000000 
3.266232 17.660781 0.274987 -160.870850 88.286988 -161.496801 -14.203459 -2.653819 -3.651137 0.237034 3.333645 12.613611 0.569101 -4.905294 -1.256123 0.050600 -1.452000 -3.993500 22.276662 7.051508 1.236319 0.441697 -3.039415 15.250143 -0.055330 -4.899371 -15.959657 -0.080100 1.825500 -5.023500 -4.329748 -0.104908 1.402313 -2.855613 -0.313924 -5.746451 7.815889 -8.690836 8.413397 3.701200 -4.006300 4.530400 -9.874160 -1.997568 -32.337315 75.043869 -57.741893 -62.547277 3.621614 -1.594627 -6.318612 -7.125000 0.000000 0.000000 31.976956 -29.293752 80.744577 -88.358532 62.932744 -56.914170 -1.019205 2.810821 -59.075699 7.125000 0.000000 0.000000 
3.267733 17.660481 0.277588 -162.585638 88.328192 -163.214189 -14.274511 -2.673078 -3.627960 0.230421 3.320733 12.562085 0.566483 -4.884212 -1.266254 0.047200 -1.401800 -3.855200 22.194199 7.034504 1.210619 0.428649 -3.060890 15.322681 -0.085534 -4.786155 -16.002680 -0.071300 1.722700 -4.739900 -4.367306 -0.087351 1.404767 -2.819513 -0.293100 -5.698901 7.826498 -8.701357 8.427274 3.713600 -4.014900 4.521700 -9.804854 -2.059522 -32.368664 74.977874 -57.714389 -62.490139 3.616192 -1.596019 -6.346653 -7.125000 0.000000 0.000000 32.054356 -29.359431 80.642200 -88.248005 62.945595 -56.827201 -1.010540 2.808602 -59.051175 7.125000 0.000000 0.000000 
3.268833 17.659580 0.281589 -165.224084 88.362521 -165.885089 -14.375380 -2.717375 -3.554533 0.220653 3.297254 12.475370 0.560581 -4.863783 -1.210118 0.041700 -1.317200 -3.622100 22.092302 6.969890 1.206895 0.414708 -3.082072 15.406940 -0.082744 -4.819456 -16.029788 -0.083600 1.865000 -5.132800 -4.396423 -0.100076 1.387253 -2.737829 -0.282088 -5.715693 7.857222 -8.680885 8.413648 3.744600 -4.010700 4.492200 -9.756165 -2.043506 -32.377152 75.042796 -57.746234 -62.555365 3.620646 -1.587399 -6.459969 -7.125000 0.000000 0.000000 32.034381 -29.358506 80.654279 -88.095832 62.953942 -56.709161 -1.004935 2.808564 -59.040787 7.125000 0.000000 0.000000 
3.272334 17.658680 0.285290 -167.166143 88.361635 -167.873330 -14.440586 -2.754945 -3.447018 0.211509 3.269910 12.385878 0.557416 -4.861133 -1.169955 0.033800 -1.187600 -3.265100 22.022298 6.892343 1.228567 0.397629 -3.107948 15.500406 -0.109850 -4.725000 -16.078801 -0.079400 1.817500 -5.001400 -4.435598 -0.138914 1.394503 -2.681511 -0.286583 -5.694157 7.878351 -8.644729 8.560621 3.762000 -3.991300 4.556000 -9.658666 -2.023550 -32.436101 74.985479 -57.730572 -62.528106 3.625626 -1.601627 -6.573501 -7.125000 0.000000 0.000000 31.983588 -29.290749 80.760296 -88.094528 62.948749 -56.704946 -1.008585 2.812429 -59.088042 7.125000 0.000000 0.000000 
3.274035 17.658580 0.288891 -168.258803 88.343647 -168.975154 -14.462986 -2.794474 -3.400922 0.205311 3.256598 12.338968 0.555563 -4.830398 -1.215158 0.037300 -1.246900 -3.428400 21.996467 6.840659 1.214749 0.386734 -3.127095 15.564716 -0.120686 -4.688910 -16.099277 -0.080800 1.833400 -5.045500 -4.504443 -0.149919 1.409739 -2.696807 -0.284659 -5.643144 7.866241 -8.665001 8.692118 3.751000 -3.997800 4.620200 -9.549517 -2.079474 -32.590234 74.965854 -57.730765 -62.543068 3.628067 -1.616225 -6.562331 -7.125000 0.000000 0.000000 32.027187 -29.306654 80.721642 -88.250993 62.944721 -56.831006 -1.006741 2.818005 -59.070694 7.125000 0.000000 0.000000 
3.275035 17.657280 0.291392 -167.775690 88.285004 -168.484154 -14.423951 -2.832863 -3.389633 0.203806 3.253364 12.330167 0.557646 -4.827911 -1.261381 0.041600 -1.315800 -3.618200 22.037169 6.805870 1.187952 0.381394 -3.139132 15.597415 -0.136227 -4.628588 -16.120564 -0.074200 1.757200 -4.835200 -4.541299 -0.162925 1.410292 -2.728426 -0.293565 -5.606800 7.800922 -8.661462 8.784819 3.725300 -3.998800 4.657300 -9.457813 -2.186866 -32.738284 74.831009 -57.676611 -62.444331 3.620074 -1.634131 -6.635726 -7.125000 0.000000 0.000000 32.033589 -29.394717 80.636166 -88.505641 62.938160 -57.050809 -0.998203 2.826079 -59.013063 7.125000 0.000000 0.000000 
3.276936 17.657180 0.295093 -167.872880 88.252764 -168.592481 -14.403079 -2.871610 -3.396049 0.207983 3.271527 12.377404 0.557621 -4.825215 -1.263075 0.046800 -1.396300 -3.840000 22.053489 6.765873 1.194518 0.382523 -3.135499 15.591643 -0.126978 -4.675445 -16.125978 -0.082200 1.849000 -5.088500 -4.592393 -0.188927 1.415960 -2.740448 -0.303688 -5.568162 7.713831 -8.656993 8.919257 3.691400 -3.999100 4.717300 -9.330793 -2.180365 -32.783329 74.857392 -57.687552 -62.459794 3.634058 -1.640234 -6.698000 -7.125000 0.000000 0.000000 32.066696 -29.394098 80.585642 -88.539376 62.937587 -57.078449 -0.997287 2.829628 -59.004245 7.125000 0.000000 0.000000 
3.279236 17.656179 0.300495 -167.729451 88.243459 -168.453965 -14.373390 -2.882405 -3.422936 0.214972 3.296422 12.447038 0.561122 -4.845125 -1.282735 0.049300 -1.433500 -3.942400 22.090873 6.756139 1.209069 0.385753 -3.129356 15.576509 -0.114582 -4.735841 -16.130330 -0.091000 1.945400 -5.354800 -4.647528 -0.191845 1.398649 -2.729340 -0.302518 -5.563121 7.656690 -8.672383 9.031713 3.667000 -4.007200 4.767500 -9.161264 -2.148059 -32.872049 74.964502 -57.743190 -62.576875 3.650975 -1.641128 -6.740346 -7.125000 0.000000 0.000000 32.151528 -29.358972 80.559101 -88.475936 62.943359 -57.018246 -0.993596 2.828458 -59.032066 7.125000 0.000000 0.000000 
3.280937 17.655879 0.306097 -165.022310 88.114091 -165.727394 -14.191782 -2.921772 -3.461643 0.221301 3.314067 12.509200 0.562951 -4.835379 -1.309050 0.057000 -1.541200 -4.239200 22.283217 6.728665 1.188912 0.391286 -3.127475 15.557998 -0.104047 -4.784711 -16.135634 -0.098900 2.028400 -5.584200 -4.707592 -0.204847 1.322410 -2.820025 -0.324884 -5.661937 7.616453 -8.663013 9.157197 3.653500 -4.005000 4.801900 -8.937730 -2.177048 -32.921217 74.975908 -57.756865 -62.614132 3.658567 -1.658483 -6.736259 -7.125000 0.000000 0.000000 32.334306 -29.419613 80.496431 -88.230347 62.968841 -56.805755 -0.982580 2.824424 -59.020732 7.125000 0.000000 0.000000 
3.284138 17.655079 0.310598 -165.223811 88.091126 -165.905622 -14.183660 -2.969683 -3.516140 0.229845 3.347471 12.598766 0.573130 -4.892749 -1.382544 0.057600 -1.549000 -4.260700 22.282986 6.697810 1.183594 0.397791 -3.108656 15.508616 -0.101471 -4.789081 -16.122334 -0.092200 1.958400 -5.390600 -4.789089 -0.200624 1.234575 -2.868095 -0.322551 -5.754770 7.530051 -8.644616 9.203285 3.622200 -4.003200 4.793200 -8.759222 -2.285053 -33.010717 74.925041 -57.738159 -62.585837 3.659492 -1.682529 -6.681479 -7.125000 0.000000 0.000000 32.460374 -29.479724 80.500814 -88.145960 62.982376 -56.719150 -0.981328 2.815047 -59.014286 7.125000 0.000000 0.000000 
3.288339 17.654879 0.314399 -164.832371 88.056793 -165.502609 -14.137040 -3.001697 -3.553018 0.238600 3.376118 12.679103 0.582757 -4.964897 -1.399267 0.048100 -1.414800 -3.890800 22.307270 6.669278 1.201846 0.405088 -3.089482 15.455852 -0.102075 -4.784449 -16.121790 -0.088700 1.921200 -5.287800 -4.852199 -0.176481 1.170598 -2.924085 -0.314104 -5.813807 7.416824 -8.667163 9.225047 3.584100 -4.023800 4.793100 -8.638843 -2.422926 -33.080462 74.939452 -57.735857 -62.578111 3.662352 -1.693115 -6.671012 -7.125000 0.000000 0.000000 32.550058 -29.536110 80.488709 -88.023938 62.994505 -56.604083 -0.987247 2.805236 -58.896771 7.125000 0.000000 0.000000 
3.290640 17.655579 0.321302 -162.020625 87.931134 -162.675112 -13.951585 -3.008320 -3.559908 0.240665 3.368534 12.678257 0.584038 -4.981109 -1.353213 0.040100 -1.292200 -3.553100 22.513745 6.663472 1.184466 0.406988 -3.095325 15.454390 -0.114515 -4.731659 -16.136610 -0.082200 1.849000 -5.088500 -4.891488 -0.178018 1.115340 -2.994131 -0.330883 -5.873540 7.311120 -8.665339 9.294217 3.550000 -4.028800 4.830900 -8.460345 -2.457154 -33.160954 74.940659 -57.738742 -62.578756 3.670976 -1.700432 -6.811538 -7.125000 0.000000 0.000000 32.637774 -29.461434 80.539099 -87.694850 63.007815 -56.315016 -0.993952 2.795623 -58.956440 7.125000 0.000000 0.000000 
3.296542 17.655479 0.330204 -161.645751 87.926355 -162.293935 -13.902213 -2.994847 -3.575458 0.242478 3.374871 12.698992 0.585281 -4.971125 -1.397126 0.050400 -1.449100 -3.985500 22.576944 6.668597 1.204365 0.409611 -3.088142 15.433788 -0.132985 -4.662144 -16.167148 -0.072300 1.734800 -4.773400 -4.942092 -0.165841 1.044991 -2.982606 -0.322108 -5.939916 7.236421 -8.637841 9.419675 3.536700 -4.020300 4.899600 -8.329712 -2.463272 -33.239311 74.876975 -57.714686 -62.521463 3.678511 -1.714422 -6.704608 -7.125000 0.000000 0.000000 32.734047 -29.354866 80.646636 -87.128292 63.027468 -55.831044 -0.997384 2.783507 -58.990118 7.125000 0.000000 0.000000 
3.307545 17.655079 0.337607 -163.355067 88.026381 -163.975412 -13.983883 -2.961053 -3.583282 0.243067 3.382670 12.710156 0.589471 -4.998702 -1.435711 0.053500 -1.492100 -4.104000 22.480401 6.690082 1.234838 0.410644 -3.074599 15.407370 -0.156444 -4.564605 -16.185636 -0.060600 1.588300 -4.369200 -5.027869 -0.164162 0.969299 -2.943869 -0.305080 -5.959866 7.096718 -8.542202 9.455552 3.488800 -3.979600 4.911800 -8.187446 -2.443029 -33.415141 74.857306 -57.724735 -62.551511 3.687093 -1.733100 -6.540583 -7.125000 0.000000 0.000000 32.894360 -29.308981 80.699991 -86.606906 63.051008 -55.386640 -0.992319 2.774207 -58.895033 7.125000 0.000000 0.000000 
